<svg version="1.1" id="Layer_1" xmlns="http://www.w3.org/2000/svg" xmlns:xlink="http://www.w3.org/1999/xlink" x="0px" y="0px"
	 width="100%" viewBox="0 0 1024 1024" enable-background="new 0 0 1024 1024" xml:space="preserve">
<path fill="#FEFFFF" opacity="1.000000" stroke="none" 
	d="
M650.000000,1025.000000 
	C433.333344,1025.000000 217.166672,1025.000000 1.000000,1025.000000 
	C1.000000,683.666687 1.000000,342.333344 1.000000,1.000000 
	C342.333344,1.000000 683.666687,1.000000 1025.000000,1.000000 
	C1025.000000,342.333344 1025.000000,683.666687 1025.000000,1025.000000 
	C900.166687,1025.000000 775.333313,1025.000000 650.000000,1025.000000 
M332.481659,820.604553 
	C338.211487,822.461914 342.661285,820.415344 347.025543,816.602783 
	C381.403503,786.570862 415.865509,756.634644 450.435913,726.824707 
	C452.333130,725.188721 455.424500,724.160217 457.961945,724.156433 
	C547.127686,724.023804 636.293823,724.083923 725.459656,723.977173 
	C732.088562,723.969238 738.817932,723.472412 745.328491,722.270264 
	C798.616150,712.430969 835.710754,668.198853 835.806458,614.024536 
	C835.982178,514.525574 835.892761,415.026184 835.871033,315.526978 
	C835.870239,311.873962 835.515381,308.211761 835.162781,304.569550 
	C829.791382,249.083389 782.816467,206.067993 726.934082,206.018341 
	C584.435242,205.891708 441.936188,205.974716 299.437256,206.070145 
	C293.307343,206.074249 287.069672,206.478119 281.065369,207.641327 
	C226.394897,218.232727 190.041855,262.402191 190.014114,318.141510 
	C189.965836,415.140778 189.970535,512.140076 190.021866,609.139343 
	C190.025024,615.119263 190.162674,621.166931 191.025497,627.067932 
	C197.590332,671.965454 222.017059,702.589844 264.719879,718.321960 
	C280.510315,724.139282 297.015320,724.380249 313.563293,724.033875 
	C317.494080,723.951538 321.428040,724.021606 325.468262,724.021606 
	C325.562683,725.473083 325.664337,726.285706 325.661285,727.098022 
	C325.560333,753.927002 325.447906,780.755920 325.341187,807.584900 
	C325.320068,812.895325 326.758820,817.471436 332.481659,820.604553 
z"/>
<path fill="#E7963B" opacity="1.000000" stroke="none" 
	d="
M332.125916,820.415527 
	C326.758820,817.471436 325.320068,812.895325 325.341187,807.584900 
	C325.447906,780.755920 325.560333,753.927002 325.661285,727.098022 
	C325.664337,726.285706 325.562683,725.473083 325.468262,724.021606 
	C321.428040,724.021606 317.494080,723.951538 313.563293,724.033875 
	C297.015320,724.380249 280.510315,724.139282 264.719879,718.321960 
	C222.017059,702.589844 197.590332,671.965454 191.025497,627.067932 
	C190.162674,621.166931 190.025024,615.119263 190.021866,609.139343 
	C189.970535,512.140076 189.965836,415.140778 190.014114,318.141510 
	C190.041855,262.402191 226.394897,218.232727 281.065369,207.641327 
	C287.069672,206.478119 293.307343,206.074249 299.437256,206.070145 
	C441.936188,205.974716 584.435242,205.891708 726.934082,206.018341 
	C782.816467,206.067993 829.791382,249.083389 835.162781,304.569550 
	C835.515381,308.211761 835.870239,311.873962 835.871033,315.526978 
	C835.892761,415.026184 835.982178,514.525574 835.806458,614.024536 
	C835.710754,668.198853 798.616150,712.430969 745.328491,722.270264 
	C738.817932,723.472412 732.088562,723.969238 725.459656,723.977173 
	C636.293823,724.083923 547.127686,724.023804 457.961945,724.156433 
	C455.424500,724.160217 452.333130,725.188721 450.435913,726.824707 
	C415.865509,756.634644 381.403503,786.570862 347.025543,816.602783 
	C342.661285,820.415344 338.211487,822.461914 332.125916,820.415527 
M436.946381,607.427734 
	C459.010956,591.615295 481.119690,575.864014 503.116455,559.957764 
	C510.941528,554.299377 515.142273,554.173462 522.888794,559.772156 
	C546.779846,577.039124 570.714111,594.246521 594.658325,611.439758 
	C600.582214,615.693359 606.350281,616.183594 610.835022,613.021729 
	C614.871338,610.176086 615.811523,605.346436 613.497742,597.990845 
	C604.457581,569.252686 595.348389,540.536255 586.290710,511.803619 
	C584.361572,505.684113 585.132996,503.021576 590.171997,499.215179 
	C613.692932,481.447784 637.241577,463.716949 660.809387,446.011658 
	C665.844177,442.229248 671.037537,438.511261 669.083679,431.045227 
	C667.637634,425.519836 662.774658,423.125031 653.476440,423.109894 
	C624.820618,423.063202 596.164612,423.091980 567.508728,423.069031 
	C558.564819,423.061859 555.756348,421.041290 552.843872,412.559570 
	C543.273865,384.689697 533.717651,356.815125 524.167603,328.938385 
	C521.721069,321.796906 518.484192,318.964233 512.744446,319.028931 
	C507.466003,319.088470 503.814209,322.259033 501.582367,328.776886 
	C492.254639,356.017700 482.927948,383.258850 473.618744,410.505981 
	C469.943298,421.263733 467.480560,423.042389 456.262939,423.044617 
	C428.273468,423.050140 400.283966,423.069580 372.294525,423.115143 
	C369.970795,423.118927 367.609924,423.145782 365.332123,423.541107 
	C361.129822,424.270416 357.871735,426.389771 356.588593,430.738464 
	C355.314240,435.057343 356.843048,438.588196 359.894989,441.583008 
	C361.079254,442.745087 362.396545,443.784454 363.724030,444.785919 
	C387.522278,462.740112 411.334351,480.675964 435.135956,498.625732 
	C440.452148,502.634918 441.601715,505.717194 439.742676,512.052185 
	C437.540497,519.556580 435.138733,527.003113 432.771912,534.458313 
	C425.872345,556.191345 418.877289,577.894409 412.075836,599.658081 
	C410.127167,605.893555 411.481110,610.449036 415.381653,613.156372 
	C419.643768,616.114624 425.151398,615.783875 430.281128,612.228699 
	C432.334503,610.805603 434.350189,609.328064 436.946381,607.427734 
z"/>
<path fill="#FEFEFD" opacity="1.000000" stroke="none" 
	d="
M436.664734,607.651489 
	C434.350189,609.328064 432.334503,610.805603 430.281128,612.228699 
	C425.151398,615.783875 419.643768,616.114624 415.381653,613.156372 
	C411.481110,610.449036 410.127167,605.893555 412.075836,599.658081 
	C418.877289,577.894409 425.872345,556.191345 432.771912,534.458313 
	C435.138733,527.003113 437.540497,519.556580 439.742676,512.052185 
	C441.601715,505.717194 440.452148,502.634918 435.135956,498.625732 
	C411.334351,480.675964 387.522278,462.740112 363.724030,444.785919 
	C362.396545,443.784454 361.079254,442.745087 359.894989,441.583008 
	C356.843048,438.588196 355.314240,435.057343 356.588593,430.738464 
	C357.871735,426.389771 361.129822,424.270416 365.332123,423.541107 
	C367.609924,423.145782 369.970795,423.118927 372.294525,423.115143 
	C400.283966,423.069580 428.273468,423.050140 456.262939,423.044617 
	C467.480560,423.042389 469.943298,421.263733 473.618744,410.505981 
	C482.927948,383.258850 492.254639,356.017700 501.582367,328.776886 
	C503.814209,322.259033 507.466003,319.088470 512.744446,319.028931 
	C518.484192,318.964233 521.721069,321.796906 524.167603,328.938385 
	C533.717651,356.815125 543.273865,384.689697 552.843872,412.559570 
	C555.756348,421.041290 558.564819,423.061859 567.508728,423.069031 
	C596.164612,423.091980 624.820618,423.063202 653.476440,423.109894 
	C662.774658,423.125031 667.637634,425.519836 669.083679,431.045227 
	C671.037537,438.511261 665.844177,442.229248 660.809387,446.011658 
	C637.241577,463.716949 613.692932,481.447784 590.171997,499.215179 
	C585.132996,503.021576 584.361572,505.684113 586.290710,511.803619 
	C595.348389,540.536255 604.457581,569.252686 613.497742,597.990845 
	C615.811523,605.346436 614.871338,610.176086 610.835022,613.021729 
	C606.350281,616.183594 600.582214,615.693359 594.658325,611.439758 
	C570.714111,594.246521 546.779846,577.039124 522.888794,559.772156 
	C515.142273,554.173462 510.941528,554.299377 503.116455,559.957764 
	C481.119690,575.864014 459.010956,591.615295 436.664734,607.651489 
z"/>
</svg>